<svg width="34" height="24" viewBox="0 0 34 24" fill="none" xmlns="http://www.w3.org/2000/svg">
<path d="M6.90571 21.8973C5.07935 20.4327 4.82256 18.0556 6.48646 15.5997C9.11726 11.7133 20.513 9.59921 26.849 8.69204C25.7458 7.59028 24.1736 6.96447 22.494 6.96447H22.2555C21.0188 4.04574 18.1364 2 14.7772 2C10.451 2 6.91881 5.39204 6.66988 9.67021H6.37902C3.01191 9.67284 0.28154 12.4128 0.28154 15.7916C0.28154 19.1705 2.81539 21.708 6.0148 21.8973H6.90309H6.90571Z" fill="#B10057"/>
<path d="M29.0245 13.8563H28.5921V13.0833C28.5921 11.6502 28.0995 10.3355 27.2794 9.29419C18.4829 10.9928 11.6832 15.2026 11.3661 18.2818C11.0412 21.4634 15.0241 21.9105 15.0241 21.9105H29.0245C31.2413 21.9105 33.0362 20.1066 33.0362 17.8847C33.0362 15.6628 31.2387 13.859 29.0245 13.859V13.8563Z" fill="#B10057"/>
<path d="M28.4453 7.14067C28.4243 7.16171 28.4086 7.18801 28.4007 7.21693H27.6592C27.6723 7.16697 27.6959 7.11701 27.7352 7.07757L29.1685 5.63924H29.1711L29.1895 5.6182C29.2288 5.57876 29.2733 5.54458 29.3257 5.51565C29.4594 5.43677 29.6061 5.40521 29.745 5.42362C29.7712 5.42625 29.7948 5.43151 29.8183 5.43677C29.8891 5.45517 29.9494 5.48936 29.9991 5.53932L30.0201 5.56035L29.462 6.12043L28.4453 7.14067ZM27.6592 7.3484C27.6723 7.39836 27.6959 7.44832 27.7352 7.48777L29.1213 8.87876L29.1895 8.94713C29.2288 8.98657 29.2733 9.02076 29.3257 9.04968C29.4594 9.12857 29.6061 9.16275 29.745 9.14171C29.8498 9.12857 29.9336 9.09175 29.9991 9.02602L30.0201 9.00498L29.7581 8.74203H29.7555L28.4453 7.42203C28.4243 7.40099 28.4086 7.3747 28.4007 7.34577H27.6592V7.3484Z" fill="#B10057"/>
<path d="M31.9957 7.22479C31.9853 7.16957 31.9591 7.11698 31.9171 7.07491L30.4419 5.59451L29.6322 4.782L29.661 4.75308C29.7318 4.68208 29.8183 4.63475 29.9205 4.60583C29.9545 4.59794 29.9886 4.59005 30.0279 4.58479C30.2297 4.55587 30.4445 4.6032 30.6384 4.71889C30.7144 4.76097 30.7799 4.81093 30.8376 4.86877L30.8638 4.89507C30.8638 4.89507 30.8664 4.89507 30.869 4.8977L32.9469 6.98288C33.0151 7.05125 33.0517 7.13539 33.0648 7.22479H31.9984H31.9957ZM30.0122 9.39938L29.6322 9.78065L29.661 9.80958C29.7528 9.90161 29.8785 9.95946 30.0279 9.97786C30.2297 10.0068 30.4445 9.95946 30.6384 9.84376C30.7144 9.80169 30.7799 9.75173 30.8376 9.69388L30.9371 9.59396L32.9443 7.57714C33.0124 7.50878 33.0491 7.42463 33.0622 7.33786H31.9957C31.9853 7.39308 31.9591 7.44304 31.9171 7.48774L30.0174 9.39412C30.0174 9.39412 30.0148 9.39675 30.0122 9.39938Z" fill="#B10057"/>
</svg>
